<?xml version="1.0" standalone="no"?>
<!DOCTYPE svg PUBLIC "-//W3C//DTD SVG 20010904//EN"
 "http://www.w3.org/TR/2001/REC-SVG-20010904/DTD/svg10.dtd">
<svg version="1.0" xmlns="http://www.w3.org/2000/svg"
 width="1200.000000pt" height="1200.000000pt" viewBox="0 0 1200.000000 1200.000000"
 preserveAspectRatio="xMidYMid meet">
<metadata>
Created by potrace 1.11, written by Peter Selinger 2001-2013
</metadata>
<g transform="translate(0.000000,1200.000000) scale(0.100000,-0.100000)"
fill="#000000" stroke="none">
<path d="M1200 6000 l-480 -960 4800 0 4800 0 480 960 480 960 -4800 0 -4800
0 -480 -960z m9330 0 l-360 -720 -4530 0 -4530 0 360 720 360 720 4530 0 4530
0 -360 -720z"/>
<path d="M6935 6309 c-117 -35 -175 -135 -176 -306 -1 -162 53 -269 157 -313
64 -28 164 -22 235 13 101 49 99 45 99 196 l0 131 -130 0 -130 0 1 -50 c2 -55
3 -55 97 -50 33 2 34 -1 34 -50 0 -66 -2 -71 -38 -86 -64 -27 -126 -9 -153 45
-25 51 -32 83 -32 162 0 97 22 170 60 192 57 33 103 21 132 -35 17 -33 24 -39
42 -34 12 3 39 9 60 12 43 8 47 22 16 74 -29 49 -75 88 -118 100 -43 12 -115
12 -156 -1z"/>
<path d="M3403 5995 l0 -315 71 0 71 0 0 133 0 132 83 1 c77 2 82 1 83 -20 1
-11 1 -72 1 -133 l0 -113 69 0 69 0 0 315 0 316 -67 -3 -68 -3 -2 -90 c0 -49
-2 -105 -2 -122 l-1 -33 -83 0 -83 0 -1 108 c-1 59 -2 115 -2 125 -1 14 -11
17 -69 17 l-69 0 0 -315z"/>
<path d="M4069 6306 c-3 -3 -3 -588 0 -618 1 -5 24 -8 51 -8 l51 0 -1 241 c-1
133 1 244 4 247 3 3 6 -3 6 -14 0 -10 17 -82 38 -159 l38 -140 51 -3 51 -3 16
53 c22 79 64 249 68 278 2 14 4 -93 3 -237 l0 -263 52 0 53 0 0 315 0 315 -79
0 -79 0 -21 -82 c-12 -46 -26 -93 -31 -104 -4 -12 -12 -42 -15 -68 -7 -47 -25
-64 -25 -23 0 13 -11 61 -24 107 -14 47 -29 104 -36 128 l-11 42 -78 0 c-43 0
-80 -2 -82 -4z"/>
<path d="M5470 5995 l0 -315 214 0 214 0 -2 53 -1 52 -140 2 c-77 1 -142 2
-145 2 -3 1 -5 118 -4 261 l1 260 -69 0 -68 0 0 -315z"/>
<path d="M6124 6263 c2 -27 4 -51 5 -54 0 -4 31 -6 69 -6 l67 1 3 -207 2 -207
-32 -1 c-18 -1 -51 -2 -73 -3 l-40 -1 -1 -53 -2 -52 216 2 216 3 -1 35 c-1 75
3 70 -63 67 -33 -2 -65 0 -71 4 -8 5 -12 69 -12 210 l-1 203 72 -1 c59 0 72 3
73 16 2 19 2 73 0 84 -1 4 -97 7 -215 7 l-215 0 3 -47z"/>
<path d="M7463 5995 l0 -315 69 0 c47 0 68 4 69 13 1 6 2 62 3 122 2 61 3 115
4 121 1 8 30 12 85 11 l82 -1 -1 -133 -1 -133 69 0 68 0 0 315 0 315 -68 0
-69 0 0 -102 c-1 -57 -1 -113 -2 -126 -1 -22 -4 -23 -83 -20 l-83 3 -1 110
c-1 61 -2 116 -3 123 -1 8 -22 12 -69 12 l-68 0 -1 -315z"/>
<path d="M8110 6256 l0 -54 68 0 c37 1 79 0 95 -1 l27 -1 0 -232 c-1 -128 -1
-245 -1 -260 1 -28 2 -28 69 -28 l69 0 0 253 c0 139 2 258 5 263 4 5 46 9 96
8 l89 -1 1 53 0 54 -259 0 -259 0 0 -54z"/>
<path d="M4850 5933 l0 -58 127 1 c71 1 133 2 138 3 6 1 10 25 9 54 l0 52
-137 3 -137 3 0 -58z"/>
</g>
</svg>
