<svg version="1.0" xmlns="http://www.w3.org/2000/svg" width="1600" height="1600" viewBox="0 0 1200 1200"><path d="M120 600l-48 96h960l48-96 48-96H168l-48 96zm933 0l-36 72H111l36-72 36-72h906l-36 72z"/><path d="M693.5 569.1c-11.7 3.5-17.5 13.5-17.6 30.6-.1 16.2 5.3 26.9 15.7 31.3 6.4 2.8 16.4 2.2 23.5-1.3 10.1-4.9 9.9-4.5 9.9-19.6V597h-26l.1 5c.2 5.5.3 5.5 9.7 5 3.3-.2 3.4.1 3.4 5 0 6.6-.2 7.1-3.8 8.6-6.4 2.7-12.6.9-15.3-4.5-2.5-5.1-3.2-8.3-3.2-16.2 0-9.7 2.2-17 6-19.2 5.7-3.3 10.3-2.1 13.2 3.5 1.7 3.3 2.4 3.9 4.2 3.4 1.2-.3 3.9-.9 6-1.2 4.3-.8 4.7-2.2 1.6-7.4-2.9-4.9-7.5-8.8-11.8-10-4.3-1.2-11.5-1.2-15.6.1zm-353.2 31.4V632h14.2v-26.5l8.3-.1c7.7-.2 8.2-.1 8.3 2 .1 1.1.1 7.2.1 13.3V632H385v-63.1l-6.7.3-6.8.3-.2 9c0 4.9-.2 10.5-.2 12.2l-.1 3.3h-16.6l-.1-10.8c-.1-5.9-.2-11.5-.2-12.5-.1-1.4-1.1-1.7-6.9-1.7h-6.9v31.5zm66.6-31.1c-.3.3-.3 58.8 0 61.8.1.5 2.4.8 5.1.8h5.1l-.1-24.1c-.1-13.3.1-24.4.4-24.7.3-.3.6.3.6 1.4 0 1 1.7 8.2 3.8 15.9l3.8 14 5.1.3 5.1.3 1.6-5.3c2.2-7.9 6.4-24.9 6.8-27.8.2-1.4.4 9.3.3 23.7V632H455v-63h-15.8l-2.1 8.2c-1.2 4.6-2.6 9.3-3.1 10.4-.4 1.2-1.2 4.2-1.5 6.8-.7 4.7-2.5 6.4-2.5 2.3 0-1.3-1.1-6.1-2.4-10.7-1.4-4.7-2.9-10.4-3.6-12.8l-1.1-4.2h-7.8c-4.3 0-8 .2-8.2.4zM547 600.5V632h42.8l-.2-5.3-.1-5.2-14-.2c-7.7-.1-14.2-.2-14.5-.2-.3-.1-.5-11.8-.4-26.1l.1-26H547v31.5zm65.4-26.8c.2 2.7.4 5.1.5 5.4 0 .4 3.1.6 6.9.6l6.7-.1.3 20.7.2 20.7-3.2.1c-1.8.1-5.1.2-7.3.3l-4 .1-.1 5.3-.2 5.2 21.6-.2 21.6-.3-.1-3.5c-.1-7.5.3-7-6.3-6.7-3.3.2-6.5 0-7.1-.4-.8-.5-1.2-6.9-1.2-21l-.1-20.3 7.2.1c5.9 0 7.2-.3 7.3-1.6.2-1.9.2-7.3 0-8.4-.1-.4-9.7-.7-21.5-.7h-21.5l.3 4.7zm133.9 26.8V632h6.9c4.7 0 6.8-.4 6.9-1.3.1-.6.2-6.2.3-12.2.2-6.1.3-11.5.4-12.1.1-.8 3-1.2 8.5-1.1l8.2.1-.1 13.3-.1 13.3H791v-63h-13.7v10.2c-.1 5.7-.1 11.3-.2 12.6-.1 2.2-.4 2.3-8.3 2l-8.3-.3-.1-11c-.1-6.1-.2-11.6-.3-12.3-.1-.8-2.2-1.2-6.9-1.2h-6.8l-.1 31.5zm64.7-26.1v5.4h6.8c3.7-.1 7.9 0 9.5.1l2.7.1v23.2c-.1 12.8-.1 24.5-.1 26 .1 2.8.2 2.8 6.9 2.8h6.9v-25.3c0-13.9.2-25.8.5-26.3.4-.5 4.6-.9 9.6-.8l8.9.1.1-5.3V569H811v5.4zm-326 32.3v5.8l12.7-.1c7.1-.1 13.3-.2 13.8-.3.6-.1 1-2.5.9-5.4v-5.2l-13.7-.3-13.7-.3v5.8z"/></svg>